<?xml version="1.0" standalone="no"?>
<!DOCTYPE svg PUBLIC "-//W3C//DTD SVG 20010904//EN"
 "http://www.w3.org/TR/2001/REC-SVG-20010904/DTD/svg10.dtd">
<svg version="1.0" xmlns="http://www.w3.org/2000/svg"
 width="512.000000pt" height="512.000000pt" viewBox="0 0 512.000000 512.000000"
 preserveAspectRatio="xMidYMid meet">
<metadata>
Created by potrace 1.14, written by Peter Selinger 2001-2017
</metadata>
<g transform="translate(0.000000,512.000000) scale(0.100000,-0.100000)"
fill="#000000" stroke="none">
<path d="M0 2560 l0 -2560 2560 0 2560 0 0 2560 0 2560 -2560 0 -2560 0 0
-2560z m1300 -1088 c0 -653 -1 -693 -20 -766 -53 -210 -197 -347 -410 -392
-144 -31 -356 -3 -490 64 l-55 28 -3 128 -3 127 43 -26 c126 -78 272 -120 388
-112 93 6 143 26 197 79 54 53 82 119 93 221 6 45 10 315 10 600 l0 517 -350
0 -350 0 0 110 0 110 475 0 475 0 0 -688z m1355 663 c194 -48 308 -150 345
-307 12 -56 12 -181 -1 -237 -27 -119 -110 -220 -220 -270 l-60 -27 43 -13
c211 -64 335 -246 313 -464 -17 -176 -108 -312 -264 -395 -157 -85 -269 -102
-653 -102 l-288 0 0 921 0 921 358 -5 c295 -3 369 -7 427 -22z m2275 -1630 l0
-195 -815 0 -815 0 0 195 0 195 815 0 815 0 0 -195z"/>
<path d="M2120 1660 l0 -292 188 4 c209 5 253 15 334 73 123 90 144 315 38
417 -72 68 -127 81 -357 86 l-203 4 0 -292z"/>
<path d="M2120 845 l0 -315 178 0 c305 0 420 44 484 185 31 71 32 202 1 260
-73 136 -204 185 -495 185 l-168 0 0 -315z"/>
</g>
</svg>
